<mxfile host="65bd71144e">
    <diagram name="Страница — 1" id="22X7eGrpJwzs_MwstsDW">
        <mxGraphModel dx="711" dy="411" grid="1" gridSize="9" guides="1" tooltips="1" connect="1" arrows="1" fold="1" page="1" pageScale="1" pageWidth="827" pageHeight="1169" background="#FFEC9E" math="0" shadow="1">
            <root>
                <mxCell id="0"/>
                <mxCell id="1" parent="0"/>
                <mxCell id="HGswQ4e0DB3E2tQhXcCx-1" value="users" style="shape=table;startSize=30;container=1;collapsible=1;childLayout=tableLayout;fixedRows=1;rowLines=1;fontStyle=1;align=center;resizeLast=1;swimlaneFillColor=default;strokeWidth=1;perimeterSpacing=1;rounded=0;shadow=0;labelBackgroundColor=none;labelBorderColor=none;fillColor=#f5f5f5;strokeColor=#666666;fontColor=#333333;" parent="1" vertex="1">
                    <mxGeometry x="30" y="220" width="180" height="330" as="geometry"/>
                </mxCell>
                <mxCell id="HGswQ4e0DB3E2tQhXcCx-2" value="" style="shape=tableRow;horizontal=0;startSize=0;swimlaneHead=0;swimlaneBody=0;collapsible=0;dropTarget=0;points=[[0,0.5],[1,0.5]];portConstraint=eastwest;top=0;left=0;right=0;bottom=1;labelBackgroundColor=none;labelBorderColor=none;fillColor=#f5f5f5;strokeColor=#666666;fontColor=#333333;" parent="HGswQ4e0DB3E2tQhXcCx-1" vertex="1">
                    <mxGeometry y="30" width="180" height="30" as="geometry"/>
                </mxCell>
                <mxCell id="HGswQ4e0DB3E2tQhXcCx-3" value="PK" style="shape=partialRectangle;connectable=0;top=0;left=0;bottom=0;right=0;fontStyle=1;overflow=hidden;labelBackgroundColor=none;labelBorderColor=none;fillColor=#f5f5f5;strokeColor=#666666;fontColor=#333333;" parent="HGswQ4e0DB3E2tQhXcCx-2" vertex="1">
                    <mxGeometry width="30" height="30" as="geometry">
                        <mxRectangle width="30" height="30" as="alternateBounds"/>
                    </mxGeometry>
                </mxCell>
                <mxCell id="HGswQ4e0DB3E2tQhXcCx-4" value="id" style="shape=partialRectangle;connectable=0;top=0;left=0;bottom=0;right=0;align=left;spacingLeft=6;fontStyle=5;overflow=hidden;labelBackgroundColor=none;labelBorderColor=none;fillColor=#f5f5f5;strokeColor=#666666;fontColor=#333333;" parent="HGswQ4e0DB3E2tQhXcCx-2" vertex="1">
                    <mxGeometry x="30" width="150" height="30" as="geometry">
                        <mxRectangle width="150" height="30" as="alternateBounds"/>
                    </mxGeometry>
                </mxCell>
                <mxCell id="HGswQ4e0DB3E2tQhXcCx-5" value="" style="shape=tableRow;horizontal=0;startSize=0;swimlaneHead=0;swimlaneBody=0;collapsible=0;dropTarget=0;points=[[0,0.5],[1,0.5]];portConstraint=eastwest;top=0;left=0;right=0;bottom=0;labelBackgroundColor=none;labelBorderColor=none;fillColor=#f5f5f5;strokeColor=#666666;fontColor=#333333;" parent="HGswQ4e0DB3E2tQhXcCx-1" vertex="1">
                    <mxGeometry y="60" width="180" height="30" as="geometry"/>
                </mxCell>
                <mxCell id="HGswQ4e0DB3E2tQhXcCx-6" value="text" style="shape=partialRectangle;connectable=0;top=0;left=0;bottom=0;right=0;editable=1;overflow=hidden;labelBackgroundColor=none;labelBorderColor=none;fillColor=#f5f5f5;strokeColor=#666666;fontColor=#333333;" parent="HGswQ4e0DB3E2tQhXcCx-5" vertex="1">
                    <mxGeometry width="30" height="30" as="geometry">
                        <mxRectangle width="30" height="30" as="alternateBounds"/>
                    </mxGeometry>
                </mxCell>
                <mxCell id="HGswQ4e0DB3E2tQhXcCx-7" value="login" style="shape=partialRectangle;connectable=0;top=0;left=0;bottom=0;right=0;align=left;spacingLeft=6;overflow=hidden;labelBackgroundColor=none;labelBorderColor=none;fillColor=#f5f5f5;strokeColor=#666666;fontColor=#333333;" parent="HGswQ4e0DB3E2tQhXcCx-5" vertex="1">
                    <mxGeometry x="30" width="150" height="30" as="geometry">
                        <mxRectangle width="150" height="30" as="alternateBounds"/>
                    </mxGeometry>
                </mxCell>
                <mxCell id="HGswQ4e0DB3E2tQhXcCx-8" value="" style="shape=tableRow;horizontal=0;startSize=0;swimlaneHead=0;swimlaneBody=0;collapsible=0;dropTarget=0;points=[[0,0.5],[1,0.5]];portConstraint=eastwest;top=0;left=0;right=0;bottom=0;labelBackgroundColor=none;labelBorderColor=none;fillColor=#f5f5f5;strokeColor=#666666;fontColor=#333333;" parent="HGswQ4e0DB3E2tQhXcCx-1" vertex="1">
                    <mxGeometry y="90" width="180" height="30" as="geometry"/>
                </mxCell>
                <mxCell id="HGswQ4e0DB3E2tQhXcCx-9" value="byte" style="shape=partialRectangle;connectable=0;top=0;left=0;bottom=0;right=0;editable=1;overflow=hidden;labelBackgroundColor=none;labelBorderColor=none;fillColor=#f5f5f5;strokeColor=#666666;fontColor=#333333;" parent="HGswQ4e0DB3E2tQhXcCx-8" vertex="1">
                    <mxGeometry width="30" height="30" as="geometry">
                        <mxRectangle width="30" height="30" as="alternateBounds"/>
                    </mxGeometry>
                </mxCell>
                <mxCell id="HGswQ4e0DB3E2tQhXcCx-10" value="password" style="shape=partialRectangle;connectable=0;top=0;left=0;bottom=0;right=0;align=left;spacingLeft=6;overflow=hidden;labelBackgroundColor=none;labelBorderColor=none;fillColor=#f5f5f5;strokeColor=#666666;fontColor=#333333;" parent="HGswQ4e0DB3E2tQhXcCx-8" vertex="1">
                    <mxGeometry x="30" width="150" height="30" as="geometry">
                        <mxRectangle width="150" height="30" as="alternateBounds"/>
                    </mxGeometry>
                </mxCell>
                <mxCell id="HGswQ4e0DB3E2tQhXcCx-11" value="" style="shape=tableRow;horizontal=0;startSize=0;swimlaneHead=0;swimlaneBody=0;collapsible=0;dropTarget=0;points=[[0,0.5],[1,0.5]];portConstraint=eastwest;top=0;left=0;right=0;bottom=0;labelBackgroundColor=none;labelBorderColor=none;fillColor=#f5f5f5;strokeColor=#666666;fontColor=#333333;" parent="HGswQ4e0DB3E2tQhXcCx-1" vertex="1">
                    <mxGeometry y="120" width="180" height="30" as="geometry"/>
                </mxCell>
                <mxCell id="HGswQ4e0DB3E2tQhXcCx-12" value="text" style="shape=partialRectangle;connectable=0;top=0;left=0;bottom=0;right=0;editable=1;overflow=hidden;labelBackgroundColor=none;labelBorderColor=none;fillColor=#f5f5f5;strokeColor=#666666;fontColor=#333333;" parent="HGswQ4e0DB3E2tQhXcCx-11" vertex="1">
                    <mxGeometry width="30" height="30" as="geometry">
                        <mxRectangle width="30" height="30" as="alternateBounds"/>
                    </mxGeometry>
                </mxCell>
                <mxCell id="HGswQ4e0DB3E2tQhXcCx-13" value="name" style="shape=partialRectangle;connectable=0;top=0;left=0;bottom=0;right=0;align=left;spacingLeft=6;overflow=hidden;labelBackgroundColor=none;labelBorderColor=none;fillColor=#f5f5f5;strokeColor=#666666;fontColor=#333333;" parent="HGswQ4e0DB3E2tQhXcCx-11" vertex="1">
                    <mxGeometry x="30" width="150" height="30" as="geometry">
                        <mxRectangle width="150" height="30" as="alternateBounds"/>
                    </mxGeometry>
                </mxCell>
                <mxCell id="HGswQ4e0DB3E2tQhXcCx-14" value="" style="shape=tableRow;horizontal=0;startSize=0;swimlaneHead=0;swimlaneBody=0;collapsible=0;dropTarget=0;points=[[0,0.5],[1,0.5]];portConstraint=eastwest;top=0;left=0;right=0;bottom=0;labelBackgroundColor=none;labelBorderColor=none;fillColor=#f5f5f5;strokeColor=#666666;fontColor=#333333;" parent="HGswQ4e0DB3E2tQhXcCx-1" vertex="1">
                    <mxGeometry y="150" width="180" height="30" as="geometry"/>
                </mxCell>
                <mxCell id="HGswQ4e0DB3E2tQhXcCx-15" value="text" style="shape=partialRectangle;connectable=0;top=0;left=0;bottom=0;right=0;editable=1;overflow=hidden;labelBackgroundColor=none;labelBorderColor=none;fillColor=#f5f5f5;strokeColor=#666666;fontColor=#333333;" parent="HGswQ4e0DB3E2tQhXcCx-14" vertex="1">
                    <mxGeometry width="30" height="30" as="geometry">
                        <mxRectangle width="30" height="30" as="alternateBounds"/>
                    </mxGeometry>
                </mxCell>
                <mxCell id="HGswQ4e0DB3E2tQhXcCx-16" value="surname" style="shape=partialRectangle;connectable=0;top=0;left=0;bottom=0;right=0;align=left;spacingLeft=6;overflow=hidden;labelBackgroundColor=none;labelBorderColor=none;fillColor=#f5f5f5;strokeColor=#666666;fontColor=#333333;" parent="HGswQ4e0DB3E2tQhXcCx-14" vertex="1">
                    <mxGeometry x="30" width="150" height="30" as="geometry">
                        <mxRectangle width="150" height="30" as="alternateBounds"/>
                    </mxGeometry>
                </mxCell>
                <mxCell id="HGswQ4e0DB3E2tQhXcCx-17" value="" style="shape=tableRow;horizontal=0;startSize=0;swimlaneHead=0;swimlaneBody=0;collapsible=0;dropTarget=0;points=[[0,0.5],[1,0.5]];portConstraint=eastwest;top=0;left=0;right=0;bottom=0;labelBackgroundColor=none;labelBorderColor=none;fillColor=#f5f5f5;strokeColor=#666666;fontColor=#333333;" parent="HGswQ4e0DB3E2tQhXcCx-1" vertex="1">
                    <mxGeometry y="180" width="180" height="30" as="geometry"/>
                </mxCell>
                <mxCell id="HGswQ4e0DB3E2tQhXcCx-18" value="text" style="shape=partialRectangle;connectable=0;top=0;left=0;bottom=0;right=0;editable=1;overflow=hidden;labelBackgroundColor=none;labelBorderColor=none;fillColor=#f5f5f5;strokeColor=#666666;fontColor=#333333;" parent="HGswQ4e0DB3E2tQhXcCx-17" vertex="1">
                    <mxGeometry width="30" height="30" as="geometry">
                        <mxRectangle width="30" height="30" as="alternateBounds"/>
                    </mxGeometry>
                </mxCell>
                <mxCell id="HGswQ4e0DB3E2tQhXcCx-19" value="email" style="shape=partialRectangle;connectable=0;top=0;left=0;bottom=0;right=0;align=left;spacingLeft=6;overflow=hidden;labelBackgroundColor=none;labelBorderColor=none;fillColor=#f5f5f5;strokeColor=#666666;fontColor=#333333;" parent="HGswQ4e0DB3E2tQhXcCx-17" vertex="1">
                    <mxGeometry x="30" width="150" height="30" as="geometry">
                        <mxRectangle width="150" height="30" as="alternateBounds"/>
                    </mxGeometry>
                </mxCell>
                <mxCell id="HGswQ4e0DB3E2tQhXcCx-20" value="" style="shape=tableRow;horizontal=0;startSize=0;swimlaneHead=0;swimlaneBody=0;collapsible=0;dropTarget=0;points=[[0,0.5],[1,0.5]];portConstraint=eastwest;top=0;left=0;right=0;bottom=0;labelBackgroundColor=none;labelBorderColor=none;fillColor=#f5f5f5;strokeColor=#666666;fontColor=#333333;" parent="HGswQ4e0DB3E2tQhXcCx-1" vertex="1">
                    <mxGeometry y="210" width="180" height="30" as="geometry"/>
                </mxCell>
                <mxCell id="HGswQ4e0DB3E2tQhXcCx-21" value="text" style="shape=partialRectangle;connectable=0;top=0;left=0;bottom=0;right=0;editable=1;overflow=hidden;labelBackgroundColor=none;labelBorderColor=none;fillColor=#f5f5f5;strokeColor=#666666;fontColor=#333333;" parent="HGswQ4e0DB3E2tQhXcCx-20" vertex="1">
                    <mxGeometry width="30" height="30" as="geometry">
                        <mxRectangle width="30" height="30" as="alternateBounds"/>
                    </mxGeometry>
                </mxCell>
                <mxCell id="HGswQ4e0DB3E2tQhXcCx-22" value="phone" style="shape=partialRectangle;connectable=0;top=0;left=0;bottom=0;right=0;align=left;spacingLeft=6;overflow=hidden;labelBackgroundColor=none;labelBorderColor=none;fillColor=#f5f5f5;strokeColor=#666666;fontColor=#333333;" parent="HGswQ4e0DB3E2tQhXcCx-20" vertex="1">
                    <mxGeometry x="30" width="150" height="30" as="geometry">
                        <mxRectangle width="150" height="30" as="alternateBounds"/>
                    </mxGeometry>
                </mxCell>
                <mxCell id="HGswQ4e0DB3E2tQhXcCx-23" value="" style="shape=tableRow;horizontal=0;startSize=0;swimlaneHead=0;swimlaneBody=0;collapsible=0;dropTarget=0;points=[[0,0.5],[1,0.5]];portConstraint=eastwest;top=0;left=0;right=0;bottom=0;labelBackgroundColor=none;labelBorderColor=none;fillColor=#f5f5f5;strokeColor=#666666;fontColor=#333333;" parent="HGswQ4e0DB3E2tQhXcCx-1" vertex="1">
                    <mxGeometry y="240" width="180" height="30" as="geometry"/>
                </mxCell>
                <mxCell id="HGswQ4e0DB3E2tQhXcCx-24" value="text" style="shape=partialRectangle;connectable=0;top=0;left=0;bottom=0;right=0;editable=1;overflow=hidden;labelBackgroundColor=none;labelBorderColor=none;fillColor=#f5f5f5;strokeColor=#666666;fontColor=#333333;" parent="HGswQ4e0DB3E2tQhXcCx-23" vertex="1">
                    <mxGeometry width="30" height="30" as="geometry">
                        <mxRectangle width="30" height="30" as="alternateBounds"/>
                    </mxGeometry>
                </mxCell>
                <mxCell id="HGswQ4e0DB3E2tQhXcCx-25" value="placework" style="shape=partialRectangle;connectable=0;top=0;left=0;bottom=0;right=0;align=left;spacingLeft=6;overflow=hidden;labelBackgroundColor=none;labelBorderColor=none;fillColor=#f5f5f5;strokeColor=#666666;fontColor=#333333;" parent="HGswQ4e0DB3E2tQhXcCx-23" vertex="1">
                    <mxGeometry x="30" width="150" height="30" as="geometry">
                        <mxRectangle width="150" height="30" as="alternateBounds"/>
                    </mxGeometry>
                </mxCell>
                <mxCell id="HGswQ4e0DB3E2tQhXcCx-26" value="" style="shape=tableRow;horizontal=0;startSize=0;swimlaneHead=0;swimlaneBody=0;collapsible=0;dropTarget=0;points=[[0,0.5],[1,0.5]];portConstraint=eastwest;top=0;left=0;right=0;bottom=0;labelBackgroundColor=none;labelBorderColor=none;fillColor=#f5f5f5;strokeColor=#666666;fontColor=#333333;" parent="HGswQ4e0DB3E2tQhXcCx-1" vertex="1">
                    <mxGeometry y="270" width="180" height="30" as="geometry"/>
                </mxCell>
                <mxCell id="HGswQ4e0DB3E2tQhXcCx-27" value="text" style="shape=partialRectangle;connectable=0;top=0;left=0;bottom=0;right=0;editable=1;overflow=hidden;labelBackgroundColor=none;labelBorderColor=none;fillColor=#f5f5f5;strokeColor=#666666;fontColor=#333333;" parent="HGswQ4e0DB3E2tQhXcCx-26" vertex="1">
                    <mxGeometry width="30" height="30" as="geometry">
                        <mxRectangle width="30" height="30" as="alternateBounds"/>
                    </mxGeometry>
                </mxCell>
                <mxCell id="HGswQ4e0DB3E2tQhXcCx-28" value="position" style="shape=partialRectangle;connectable=0;top=0;left=0;bottom=0;right=0;align=left;spacingLeft=6;overflow=hidden;labelBackgroundColor=none;labelBorderColor=none;fillColor=#f5f5f5;strokeColor=#666666;fontColor=#333333;" parent="HGswQ4e0DB3E2tQhXcCx-26" vertex="1">
                    <mxGeometry x="30" width="150" height="30" as="geometry">
                        <mxRectangle width="150" height="30" as="alternateBounds"/>
                    </mxGeometry>
                </mxCell>
                <mxCell id="2" value="" style="shape=tableRow;horizontal=0;startSize=0;swimlaneHead=0;swimlaneBody=0;collapsible=0;dropTarget=0;points=[[0,0.5],[1,0.5]];portConstraint=eastwest;top=0;left=0;right=0;bottom=0;labelBackgroundColor=none;labelBorderColor=none;fillColor=#f5f5f5;strokeColor=#666666;fontColor=#333333;" parent="HGswQ4e0DB3E2tQhXcCx-1" vertex="1">
                    <mxGeometry y="300" width="180" height="30" as="geometry"/>
                </mxCell>
                <mxCell id="3" value="text" style="shape=partialRectangle;connectable=0;top=0;left=0;bottom=0;right=0;editable=1;overflow=hidden;labelBackgroundColor=none;labelBorderColor=none;fillColor=#f5f5f5;strokeColor=#666666;fontColor=#333333;" parent="2" vertex="1">
                    <mxGeometry width="30" height="30" as="geometry">
                        <mxRectangle width="30" height="30" as="alternateBounds"/>
                    </mxGeometry>
                </mxCell>
                <mxCell id="4" value="photo_url" style="shape=partialRectangle;connectable=0;top=0;left=0;bottom=0;right=0;align=left;spacingLeft=6;overflow=hidden;labelBackgroundColor=none;labelBorderColor=none;fillColor=#f5f5f5;strokeColor=#666666;fontColor=#333333;" parent="2" vertex="1">
                    <mxGeometry x="30" width="150" height="30" as="geometry">
                        <mxRectangle width="150" height="30" as="alternateBounds"/>
                    </mxGeometry>
                </mxCell>
                <mxCell id="HGswQ4e0DB3E2tQhXcCx-29" value="users_roles" style="shape=table;startSize=30;container=1;collapsible=1;childLayout=tableLayout;fixedRows=1;rowLines=1;fontStyle=1;align=center;resizeLast=1;swimlaneFillColor=default;strokeWidth=1;perimeterSpacing=1;rounded=0;shadow=0;labelBackgroundColor=none;labelBorderColor=none;fillColor=#f5f5f5;strokeColor=#666666;fontColor=#333333;" parent="1" vertex="1">
                    <mxGeometry x="270" y="70" width="180" height="90" as="geometry"/>
                </mxCell>
                <mxCell id="HGswQ4e0DB3E2tQhXcCx-30" value="" style="shape=tableRow;horizontal=0;startSize=0;swimlaneHead=0;swimlaneBody=0;collapsible=0;dropTarget=0;points=[[0,0.5],[1,0.5]];portConstraint=eastwest;top=0;left=0;right=0;bottom=1;labelBackgroundColor=none;labelBorderColor=none;fillColor=#f5f5f5;strokeColor=#666666;fontColor=#333333;" parent="HGswQ4e0DB3E2tQhXcCx-29" vertex="1">
                    <mxGeometry y="30" width="180" height="30" as="geometry"/>
                </mxCell>
                <mxCell id="HGswQ4e0DB3E2tQhXcCx-31" value="PK" style="shape=partialRectangle;connectable=0;top=0;left=0;bottom=0;right=0;fontStyle=1;overflow=hidden;labelBackgroundColor=none;labelBorderColor=none;fillColor=#f5f5f5;strokeColor=#666666;fontColor=#333333;" parent="HGswQ4e0DB3E2tQhXcCx-30" vertex="1">
                    <mxGeometry width="30" height="30" as="geometry">
                        <mxRectangle width="30" height="30" as="alternateBounds"/>
                    </mxGeometry>
                </mxCell>
                <mxCell id="HGswQ4e0DB3E2tQhXcCx-32" value="role_id" style="shape=partialRectangle;connectable=0;top=0;left=0;bottom=0;right=0;align=left;spacingLeft=6;fontStyle=5;overflow=hidden;labelBackgroundColor=none;labelBorderColor=none;fillColor=#f5f5f5;strokeColor=#666666;fontColor=#333333;" parent="HGswQ4e0DB3E2tQhXcCx-30" vertex="1">
                    <mxGeometry x="30" width="150" height="30" as="geometry">
                        <mxRectangle width="150" height="30" as="alternateBounds"/>
                    </mxGeometry>
                </mxCell>
                <mxCell id="HGswQ4e0DB3E2tQhXcCx-33" value="" style="shape=tableRow;horizontal=0;startSize=0;swimlaneHead=0;swimlaneBody=0;collapsible=0;dropTarget=0;points=[[0,0.5],[1,0.5]];portConstraint=eastwest;top=0;left=0;right=0;bottom=0;labelBackgroundColor=none;labelBorderColor=none;fillColor=#f5f5f5;strokeColor=#666666;fontColor=#333333;" parent="HGswQ4e0DB3E2tQhXcCx-29" vertex="1">
                    <mxGeometry y="60" width="180" height="30" as="geometry"/>
                </mxCell>
                <mxCell id="HGswQ4e0DB3E2tQhXcCx-34" value="PK&#9;" style="shape=partialRectangle;connectable=0;top=0;left=0;bottom=0;right=0;editable=1;overflow=hidden;labelBackgroundColor=none;labelBorderColor=none;fillColor=#f5f5f5;strokeColor=#666666;fontColor=#333333;" parent="HGswQ4e0DB3E2tQhXcCx-33" vertex="1">
                    <mxGeometry width="30" height="30" as="geometry">
                        <mxRectangle width="30" height="30" as="alternateBounds"/>
                    </mxGeometry>
                </mxCell>
                <mxCell id="HGswQ4e0DB3E2tQhXcCx-35" value="user_id" style="shape=partialRectangle;connectable=0;top=0;left=0;bottom=0;right=0;align=left;spacingLeft=6;overflow=hidden;labelBackgroundColor=none;labelBorderColor=none;fillColor=#f5f5f5;strokeColor=#666666;fontColor=#333333;" parent="HGswQ4e0DB3E2tQhXcCx-33" vertex="1">
                    <mxGeometry x="30" width="150" height="30" as="geometry">
                        <mxRectangle width="150" height="30" as="alternateBounds"/>
                    </mxGeometry>
                </mxCell>
                <mxCell id="HGswQ4e0DB3E2tQhXcCx-36" value="roles" style="shape=table;startSize=30;container=1;collapsible=1;childLayout=tableLayout;fixedRows=1;rowLines=1;fontStyle=1;align=center;resizeLast=1;swimlaneFillColor=default;strokeWidth=1;perimeterSpacing=1;rounded=0;shadow=0;labelBackgroundColor=none;labelBorderColor=none;fillColor=#f5f5f5;strokeColor=#666666;fontColor=#333333;" parent="1" vertex="1">
                    <mxGeometry x="490" y="250" width="180" height="90" as="geometry"/>
                </mxCell>
                <mxCell id="HGswQ4e0DB3E2tQhXcCx-37" value="" style="shape=tableRow;horizontal=0;startSize=0;swimlaneHead=0;swimlaneBody=0;collapsible=0;dropTarget=0;points=[[0,0.5],[1,0.5]];portConstraint=eastwest;top=0;left=0;right=0;bottom=1;labelBackgroundColor=none;labelBorderColor=none;fillColor=#f5f5f5;strokeColor=#666666;fontColor=#333333;" parent="HGswQ4e0DB3E2tQhXcCx-36" vertex="1">
                    <mxGeometry y="30" width="180" height="30" as="geometry"/>
                </mxCell>
                <mxCell id="HGswQ4e0DB3E2tQhXcCx-38" value="PK" style="shape=partialRectangle;connectable=0;top=0;left=0;bottom=0;right=0;fontStyle=1;overflow=hidden;labelBackgroundColor=none;labelBorderColor=none;fillColor=#f5f5f5;strokeColor=#666666;fontColor=#333333;" parent="HGswQ4e0DB3E2tQhXcCx-37" vertex="1">
                    <mxGeometry width="30" height="30" as="geometry">
                        <mxRectangle width="30" height="30" as="alternateBounds"/>
                    </mxGeometry>
                </mxCell>
                <mxCell id="HGswQ4e0DB3E2tQhXcCx-39" value="id" style="shape=partialRectangle;connectable=0;top=0;left=0;bottom=0;right=0;align=left;spacingLeft=6;fontStyle=5;overflow=hidden;labelBackgroundColor=none;labelBorderColor=none;fillColor=#f5f5f5;strokeColor=#666666;fontColor=#333333;" parent="HGswQ4e0DB3E2tQhXcCx-37" vertex="1">
                    <mxGeometry x="30" width="150" height="30" as="geometry">
                        <mxRectangle width="150" height="30" as="alternateBounds"/>
                    </mxGeometry>
                </mxCell>
                <mxCell id="HGswQ4e0DB3E2tQhXcCx-40" value="" style="shape=tableRow;horizontal=0;startSize=0;swimlaneHead=0;swimlaneBody=0;collapsible=0;dropTarget=0;points=[[0,0.5],[1,0.5]];portConstraint=eastwest;top=0;left=0;right=0;bottom=0;labelBackgroundColor=none;labelBorderColor=none;fillColor=#f5f5f5;strokeColor=#666666;fontColor=#333333;" parent="HGswQ4e0DB3E2tQhXcCx-36" vertex="1">
                    <mxGeometry y="60" width="180" height="30" as="geometry"/>
                </mxCell>
                <mxCell id="HGswQ4e0DB3E2tQhXcCx-41" value="text" style="shape=partialRectangle;connectable=0;top=0;left=0;bottom=0;right=0;editable=1;overflow=hidden;labelBackgroundColor=none;labelBorderColor=none;fillColor=#f5f5f5;strokeColor=#666666;fontColor=#333333;" parent="HGswQ4e0DB3E2tQhXcCx-40" vertex="1">
                    <mxGeometry width="30" height="30" as="geometry">
                        <mxRectangle width="30" height="30" as="alternateBounds"/>
                    </mxGeometry>
                </mxCell>
                <mxCell id="HGswQ4e0DB3E2tQhXcCx-42" value="role" style="shape=partialRectangle;connectable=0;top=0;left=0;bottom=0;right=0;align=left;spacingLeft=6;overflow=hidden;labelBackgroundColor=none;labelBorderColor=none;fillColor=#f5f5f5;strokeColor=#666666;fontColor=#333333;" parent="HGswQ4e0DB3E2tQhXcCx-40" vertex="1">
                    <mxGeometry x="30" width="150" height="30" as="geometry">
                        <mxRectangle width="150" height="30" as="alternateBounds"/>
                    </mxGeometry>
                </mxCell>
                <mxCell id="HGswQ4e0DB3E2tQhXcCx-43" value="roles_permissions" style="shape=table;startSize=30;container=1;collapsible=1;childLayout=tableLayout;fixedRows=1;rowLines=1;fontStyle=1;align=center;resizeLast=1;swimlaneFillColor=default;strokeWidth=1;perimeterSpacing=1;rounded=0;shadow=0;labelBackgroundColor=none;labelBorderColor=none;fillColor=#f5f5f5;strokeColor=#666666;fontColor=#333333;" parent="1" vertex="1">
                    <mxGeometry x="710" y="50" width="180" height="90" as="geometry"/>
                </mxCell>
                <mxCell id="HGswQ4e0DB3E2tQhXcCx-44" value="" style="shape=tableRow;horizontal=0;startSize=0;swimlaneHead=0;swimlaneBody=0;collapsible=0;dropTarget=0;points=[[0,0.5],[1,0.5]];portConstraint=eastwest;top=0;left=0;right=0;bottom=1;labelBackgroundColor=none;labelBorderColor=none;fillColor=#f5f5f5;strokeColor=#666666;fontColor=#333333;" parent="HGswQ4e0DB3E2tQhXcCx-43" vertex="1">
                    <mxGeometry y="30" width="180" height="30" as="geometry"/>
                </mxCell>
                <mxCell id="HGswQ4e0DB3E2tQhXcCx-45" value="PK" style="shape=partialRectangle;connectable=0;top=0;left=0;bottom=0;right=0;fontStyle=1;overflow=hidden;labelBackgroundColor=none;labelBorderColor=none;fillColor=#f5f5f5;strokeColor=#666666;fontColor=#333333;" parent="HGswQ4e0DB3E2tQhXcCx-44" vertex="1">
                    <mxGeometry width="30" height="30" as="geometry">
                        <mxRectangle width="30" height="30" as="alternateBounds"/>
                    </mxGeometry>
                </mxCell>
                <mxCell id="HGswQ4e0DB3E2tQhXcCx-46" value="permission_id" style="shape=partialRectangle;connectable=0;top=0;left=0;bottom=0;right=0;align=left;spacingLeft=6;fontStyle=5;overflow=hidden;labelBackgroundColor=none;labelBorderColor=none;fillColor=#f5f5f5;strokeColor=#666666;fontColor=#333333;" parent="HGswQ4e0DB3E2tQhXcCx-44" vertex="1">
                    <mxGeometry x="30" width="150" height="30" as="geometry">
                        <mxRectangle width="150" height="30" as="alternateBounds"/>
                    </mxGeometry>
                </mxCell>
                <mxCell id="HGswQ4e0DB3E2tQhXcCx-47" value="" style="shape=tableRow;horizontal=0;startSize=0;swimlaneHead=0;swimlaneBody=0;collapsible=0;dropTarget=0;points=[[0,0.5],[1,0.5]];portConstraint=eastwest;top=0;left=0;right=0;bottom=0;labelBackgroundColor=none;labelBorderColor=none;fillColor=#f5f5f5;strokeColor=#666666;fontColor=#333333;" parent="HGswQ4e0DB3E2tQhXcCx-43" vertex="1">
                    <mxGeometry y="60" width="180" height="30" as="geometry"/>
                </mxCell>
                <mxCell id="HGswQ4e0DB3E2tQhXcCx-48" value="PK" style="shape=partialRectangle;connectable=0;top=0;left=0;bottom=0;right=0;editable=1;overflow=hidden;labelBackgroundColor=none;labelBorderColor=none;fillColor=#f5f5f5;strokeColor=#666666;fontColor=#333333;" parent="HGswQ4e0DB3E2tQhXcCx-47" vertex="1">
                    <mxGeometry width="30" height="30" as="geometry">
                        <mxRectangle width="30" height="30" as="alternateBounds"/>
                    </mxGeometry>
                </mxCell>
                <mxCell id="HGswQ4e0DB3E2tQhXcCx-49" value="role_id" style="shape=partialRectangle;connectable=0;top=0;left=0;bottom=0;right=0;align=left;spacingLeft=6;overflow=hidden;labelBackgroundColor=none;labelBorderColor=none;fillColor=#f5f5f5;strokeColor=#666666;fontColor=#333333;" parent="HGswQ4e0DB3E2tQhXcCx-47" vertex="1">
                    <mxGeometry x="30" width="150" height="30" as="geometry">
                        <mxRectangle width="150" height="30" as="alternateBounds"/>
                    </mxGeometry>
                </mxCell>
                <mxCell id="HGswQ4e0DB3E2tQhXcCx-50" value="permissions" style="shape=table;startSize=30;container=1;collapsible=1;childLayout=tableLayout;fixedRows=1;rowLines=1;fontStyle=1;align=center;resizeLast=1;swimlaneFillColor=default;strokeWidth=1;perimeterSpacing=1;rounded=0;shadow=0;labelBackgroundColor=none;labelBorderColor=none;fillColor=#f5f5f5;strokeColor=#666666;fontColor=#333333;" parent="1" vertex="1">
                    <mxGeometry x="950" y="250" width="180" height="90" as="geometry"/>
                </mxCell>
                <mxCell id="HGswQ4e0DB3E2tQhXcCx-51" value="" style="shape=tableRow;horizontal=0;startSize=0;swimlaneHead=0;swimlaneBody=0;collapsible=0;dropTarget=0;points=[[0,0.5],[1,0.5]];portConstraint=eastwest;top=0;left=0;right=0;bottom=1;labelBackgroundColor=none;labelBorderColor=none;fillColor=#f5f5f5;strokeColor=#666666;fontColor=#333333;" parent="HGswQ4e0DB3E2tQhXcCx-50" vertex="1">
                    <mxGeometry y="30" width="180" height="30" as="geometry"/>
                </mxCell>
                <mxCell id="HGswQ4e0DB3E2tQhXcCx-52" value="PK" style="shape=partialRectangle;connectable=0;top=0;left=0;bottom=0;right=0;fontStyle=1;overflow=hidden;labelBackgroundColor=none;labelBorderColor=none;fillColor=#f5f5f5;strokeColor=#666666;fontColor=#333333;" parent="HGswQ4e0DB3E2tQhXcCx-51" vertex="1">
                    <mxGeometry width="30" height="30" as="geometry">
                        <mxRectangle width="30" height="30" as="alternateBounds"/>
                    </mxGeometry>
                </mxCell>
                <mxCell id="HGswQ4e0DB3E2tQhXcCx-53" value="id" style="shape=partialRectangle;connectable=0;top=0;left=0;bottom=0;right=0;align=left;spacingLeft=6;fontStyle=5;overflow=hidden;labelBackgroundColor=none;labelBorderColor=none;fillColor=#f5f5f5;strokeColor=#666666;fontColor=#333333;" parent="HGswQ4e0DB3E2tQhXcCx-51" vertex="1">
                    <mxGeometry x="30" width="150" height="30" as="geometry">
                        <mxRectangle width="150" height="30" as="alternateBounds"/>
                    </mxGeometry>
                </mxCell>
                <mxCell id="HGswQ4e0DB3E2tQhXcCx-54" value="" style="shape=tableRow;horizontal=0;startSize=0;swimlaneHead=0;swimlaneBody=0;collapsible=0;dropTarget=0;points=[[0,0.5],[1,0.5]];portConstraint=eastwest;top=0;left=0;right=0;bottom=0;labelBackgroundColor=none;labelBorderColor=none;fillColor=#f5f5f5;strokeColor=#666666;fontColor=#333333;" parent="HGswQ4e0DB3E2tQhXcCx-50" vertex="1">
                    <mxGeometry y="60" width="180" height="30" as="geometry"/>
                </mxCell>
                <mxCell id="HGswQ4e0DB3E2tQhXcCx-55" value="text" style="shape=partialRectangle;connectable=0;top=0;left=0;bottom=0;right=0;editable=1;overflow=hidden;labelBackgroundColor=none;labelBorderColor=none;fillColor=#f5f5f5;strokeColor=#666666;fontColor=#333333;" parent="HGswQ4e0DB3E2tQhXcCx-54" vertex="1">
                    <mxGeometry width="30" height="30" as="geometry">
                        <mxRectangle width="30" height="30" as="alternateBounds"/>
                    </mxGeometry>
                </mxCell>
                <mxCell id="HGswQ4e0DB3E2tQhXcCx-56" value="permission" style="shape=partialRectangle;connectable=0;top=0;left=0;bottom=0;right=0;align=left;spacingLeft=6;overflow=hidden;labelBackgroundColor=none;labelBorderColor=none;fillColor=#f5f5f5;strokeColor=#666666;fontColor=#333333;" parent="HGswQ4e0DB3E2tQhXcCx-54" vertex="1">
                    <mxGeometry x="30" width="150" height="30" as="geometry">
                        <mxRectangle width="150" height="30" as="alternateBounds"/>
                    </mxGeometry>
                </mxCell>
                <mxCell id="HGswQ4e0DB3E2tQhXcCx-57" value="token" style="shape=table;startSize=30;container=1;collapsible=1;childLayout=tableLayout;fixedRows=1;rowLines=1;fontStyle=1;align=center;resizeLast=1;swimlaneFillColor=default;strokeWidth=1;perimeterSpacing=1;rounded=0;shadow=0;labelBackgroundColor=none;labelBorderColor=none;fillColor=#f5f5f5;strokeColor=#666666;fontColor=#333333;" parent="1" vertex="1">
                    <mxGeometry x="480" y="440" width="180" height="270" as="geometry"/>
                </mxCell>
                <mxCell id="HGswQ4e0DB3E2tQhXcCx-58" value="" style="shape=tableRow;horizontal=0;startSize=0;swimlaneHead=0;swimlaneBody=0;collapsible=0;dropTarget=0;points=[[0,0.5],[1,0.5]];portConstraint=eastwest;top=0;left=0;right=0;bottom=1;labelBackgroundColor=none;labelBorderColor=none;fillColor=#f5f5f5;strokeColor=#666666;fontColor=#333333;" parent="HGswQ4e0DB3E2tQhXcCx-57" vertex="1">
                    <mxGeometry y="30" width="180" height="30" as="geometry"/>
                </mxCell>
                <mxCell id="HGswQ4e0DB3E2tQhXcCx-59" value="PK" style="shape=partialRectangle;connectable=0;top=0;left=0;bottom=0;right=0;fontStyle=1;overflow=hidden;labelBackgroundColor=none;labelBorderColor=none;fillColor=#f5f5f5;strokeColor=#666666;fontColor=#333333;" parent="HGswQ4e0DB3E2tQhXcCx-58" vertex="1">
                    <mxGeometry width="30" height="30" as="geometry">
                        <mxRectangle width="30" height="30" as="alternateBounds"/>
                    </mxGeometry>
                </mxCell>
                <mxCell id="HGswQ4e0DB3E2tQhXcCx-60" value="id" style="shape=partialRectangle;connectable=0;top=0;left=0;bottom=0;right=0;align=left;spacingLeft=6;fontStyle=5;overflow=hidden;labelBackgroundColor=none;labelBorderColor=none;fillColor=#f5f5f5;strokeColor=#666666;fontColor=#333333;" parent="HGswQ4e0DB3E2tQhXcCx-58" vertex="1">
                    <mxGeometry x="30" width="150" height="30" as="geometry">
                        <mxRectangle width="150" height="30" as="alternateBounds"/>
                    </mxGeometry>
                </mxCell>
                <mxCell id="HGswQ4e0DB3E2tQhXcCx-61" value="" style="shape=tableRow;horizontal=0;startSize=0;swimlaneHead=0;swimlaneBody=0;collapsible=0;dropTarget=0;points=[[0,0.5],[1,0.5]];portConstraint=eastwest;top=0;left=0;right=0;bottom=0;labelBackgroundColor=none;labelBorderColor=none;fillColor=#f5f5f5;strokeColor=#666666;fontColor=#333333;" parent="HGswQ4e0DB3E2tQhXcCx-57" vertex="1">
                    <mxGeometry y="60" width="180" height="30" as="geometry"/>
                </mxCell>
                <mxCell id="HGswQ4e0DB3E2tQhXcCx-62" value="int" style="shape=partialRectangle;connectable=0;top=0;left=0;bottom=0;right=0;editable=1;overflow=hidden;labelBackgroundColor=none;labelBorderColor=none;fillColor=#f5f5f5;strokeColor=#666666;fontColor=#333333;" parent="HGswQ4e0DB3E2tQhXcCx-61" vertex="1">
                    <mxGeometry width="30" height="30" as="geometry">
                        <mxRectangle width="30" height="30" as="alternateBounds"/>
                    </mxGeometry>
                </mxCell>
                <mxCell id="HGswQ4e0DB3E2tQhXcCx-63" value="user_id" style="shape=partialRectangle;connectable=0;top=0;left=0;bottom=0;right=0;align=left;spacingLeft=6;overflow=hidden;labelBackgroundColor=none;labelBorderColor=none;fillColor=#f5f5f5;strokeColor=#666666;fontColor=#333333;" parent="HGswQ4e0DB3E2tQhXcCx-61" vertex="1">
                    <mxGeometry x="30" width="150" height="30" as="geometry">
                        <mxRectangle width="150" height="30" as="alternateBounds"/>
                    </mxGeometry>
                </mxCell>
                <mxCell id="HGswQ4e0DB3E2tQhXcCx-64" value="" style="shape=tableRow;horizontal=0;startSize=0;swimlaneHead=0;swimlaneBody=0;collapsible=0;dropTarget=0;points=[[0,0.5],[1,0.5]];portConstraint=eastwest;top=0;left=0;right=0;bottom=0;labelBackgroundColor=none;labelBorderColor=none;fillColor=#f5f5f5;strokeColor=#666666;fontColor=#333333;" parent="HGswQ4e0DB3E2tQhXcCx-57" vertex="1">
                    <mxGeometry y="90" width="180" height="30" as="geometry"/>
                </mxCell>
                <mxCell id="HGswQ4e0DB3E2tQhXcCx-65" value="byte" style="shape=partialRectangle;connectable=0;top=0;left=0;bottom=0;right=0;editable=1;overflow=hidden;labelBackgroundColor=none;labelBorderColor=none;fillColor=#f5f5f5;strokeColor=#666666;fontColor=#333333;" parent="HGswQ4e0DB3E2tQhXcCx-64" vertex="1">
                    <mxGeometry width="30" height="30" as="geometry">
                        <mxRectangle width="30" height="30" as="alternateBounds"/>
                    </mxGeometry>
                </mxCell>
                <mxCell id="HGswQ4e0DB3E2tQhXcCx-66" value="token" style="shape=partialRectangle;connectable=0;top=0;left=0;bottom=0;right=0;align=left;spacingLeft=6;overflow=hidden;labelBackgroundColor=none;labelBorderColor=none;fillColor=#f5f5f5;strokeColor=#666666;fontColor=#333333;" parent="HGswQ4e0DB3E2tQhXcCx-64" vertex="1">
                    <mxGeometry x="30" width="150" height="30" as="geometry">
                        <mxRectangle width="150" height="30" as="alternateBounds"/>
                    </mxGeometry>
                </mxCell>
                <mxCell id="HGswQ4e0DB3E2tQhXcCx-67" value="" style="shape=tableRow;horizontal=0;startSize=0;swimlaneHead=0;swimlaneBody=0;collapsible=0;dropTarget=0;points=[[0,0.5],[1,0.5]];portConstraint=eastwest;top=0;left=0;right=0;bottom=0;labelBackgroundColor=none;labelBorderColor=none;fillColor=#f5f5f5;strokeColor=#666666;fontColor=#333333;" parent="HGswQ4e0DB3E2tQhXcCx-57" vertex="1">
                    <mxGeometry y="120" width="180" height="30" as="geometry"/>
                </mxCell>
                <mxCell id="HGswQ4e0DB3E2tQhXcCx-68" value="byte" style="shape=partialRectangle;connectable=0;top=0;left=0;bottom=0;right=0;editable=1;overflow=hidden;labelBackgroundColor=none;labelBorderColor=none;fillColor=#f5f5f5;strokeColor=#666666;fontColor=#333333;" parent="HGswQ4e0DB3E2tQhXcCx-67" vertex="1">
                    <mxGeometry width="30" height="30" as="geometry">
                        <mxRectangle width="30" height="30" as="alternateBounds"/>
                    </mxGeometry>
                </mxCell>
                <mxCell id="HGswQ4e0DB3E2tQhXcCx-69" value="refresh" style="shape=partialRectangle;connectable=0;top=0;left=0;bottom=0;right=0;align=left;spacingLeft=6;overflow=hidden;labelBackgroundColor=none;labelBorderColor=none;fillColor=#f5f5f5;strokeColor=#666666;fontColor=#333333;" parent="HGswQ4e0DB3E2tQhXcCx-67" vertex="1">
                    <mxGeometry x="30" width="150" height="30" as="geometry">
                        <mxRectangle width="150" height="30" as="alternateBounds"/>
                    </mxGeometry>
                </mxCell>
                <mxCell id="HGswQ4e0DB3E2tQhXcCx-70" value="" style="shape=tableRow;horizontal=0;startSize=0;swimlaneHead=0;swimlaneBody=0;collapsible=0;dropTarget=0;points=[[0,0.5],[1,0.5]];portConstraint=eastwest;top=0;left=0;right=0;bottom=0;labelBackgroundColor=none;labelBorderColor=none;fillColor=#f5f5f5;strokeColor=#666666;fontColor=#333333;" parent="HGswQ4e0DB3E2tQhXcCx-57" vertex="1">
                    <mxGeometry y="150" width="180" height="30" as="geometry"/>
                </mxCell>
                <mxCell id="HGswQ4e0DB3E2tQhXcCx-71" value="time" style="shape=partialRectangle;connectable=0;top=0;left=0;bottom=0;right=0;editable=1;overflow=hidden;labelBackgroundColor=none;labelBorderColor=none;fillColor=#f5f5f5;strokeColor=#666666;fontColor=#333333;" parent="HGswQ4e0DB3E2tQhXcCx-70" vertex="1">
                    <mxGeometry width="30" height="30" as="geometry">
                        <mxRectangle width="30" height="30" as="alternateBounds"/>
                    </mxGeometry>
                </mxCell>
                <mxCell id="HGswQ4e0DB3E2tQhXcCx-72" value="expired_at" style="shape=partialRectangle;connectable=0;top=0;left=0;bottom=0;right=0;align=left;spacingLeft=6;overflow=hidden;labelBackgroundColor=none;labelBorderColor=none;fillColor=#f5f5f5;strokeColor=#666666;fontColor=#333333;" parent="HGswQ4e0DB3E2tQhXcCx-70" vertex="1">
                    <mxGeometry x="30" width="150" height="30" as="geometry">
                        <mxRectangle width="150" height="30" as="alternateBounds"/>
                    </mxGeometry>
                </mxCell>
                <mxCell id="HGswQ4e0DB3E2tQhXcCx-73" value="" style="shape=tableRow;horizontal=0;startSize=0;swimlaneHead=0;swimlaneBody=0;collapsible=0;dropTarget=0;points=[[0,0.5],[1,0.5]];portConstraint=eastwest;top=0;left=0;right=0;bottom=0;labelBackgroundColor=none;labelBorderColor=none;fillColor=#f5f5f5;strokeColor=#666666;fontColor=#333333;" parent="HGswQ4e0DB3E2tQhXcCx-57" vertex="1">
                    <mxGeometry y="180" width="180" height="30" as="geometry"/>
                </mxCell>
                <mxCell id="HGswQ4e0DB3E2tQhXcCx-74" value="time&#9;" style="shape=partialRectangle;connectable=0;top=0;left=0;bottom=0;right=0;editable=1;overflow=hidden;labelBackgroundColor=none;labelBorderColor=none;fillColor=#f5f5f5;strokeColor=#666666;fontColor=#333333;" parent="HGswQ4e0DB3E2tQhXcCx-73" vertex="1">
                    <mxGeometry width="30" height="30" as="geometry">
                        <mxRectangle width="30" height="30" as="alternateBounds"/>
                    </mxGeometry>
                </mxCell>
                <mxCell id="HGswQ4e0DB3E2tQhXcCx-75" value="created_at" style="shape=partialRectangle;connectable=0;top=0;left=0;bottom=0;right=0;align=left;spacingLeft=6;overflow=hidden;labelBackgroundColor=none;labelBorderColor=none;fillColor=#f5f5f5;strokeColor=#666666;fontColor=#333333;" parent="HGswQ4e0DB3E2tQhXcCx-73" vertex="1">
                    <mxGeometry x="30" width="150" height="30" as="geometry">
                        <mxRectangle width="150" height="30" as="alternateBounds"/>
                    </mxGeometry>
                </mxCell>
                <mxCell id="HGswQ4e0DB3E2tQhXcCx-76" value="" style="shape=tableRow;horizontal=0;startSize=0;swimlaneHead=0;swimlaneBody=0;collapsible=0;dropTarget=0;points=[[0,0.5],[1,0.5]];portConstraint=eastwest;top=0;left=0;right=0;bottom=0;labelBackgroundColor=none;labelBorderColor=none;fillColor=#f5f5f5;strokeColor=#666666;fontColor=#333333;" parent="HGswQ4e0DB3E2tQhXcCx-57" vertex="1">
                    <mxGeometry y="210" width="180" height="30" as="geometry"/>
                </mxCell>
                <mxCell id="HGswQ4e0DB3E2tQhXcCx-77" value="time" style="shape=partialRectangle;connectable=0;top=0;left=0;bottom=0;right=0;editable=1;overflow=hidden;labelBackgroundColor=none;labelBorderColor=none;fillColor=#f5f5f5;strokeColor=#666666;fontColor=#333333;" parent="HGswQ4e0DB3E2tQhXcCx-76" vertex="1">
                    <mxGeometry width="30" height="30" as="geometry">
                        <mxRectangle width="30" height="30" as="alternateBounds"/>
                    </mxGeometry>
                </mxCell>
                <mxCell id="HGswQ4e0DB3E2tQhXcCx-78" value="updated_at" style="shape=partialRectangle;connectable=0;top=0;left=0;bottom=0;right=0;align=left;spacingLeft=6;overflow=hidden;labelBackgroundColor=none;labelBorderColor=none;fillColor=#f5f5f5;strokeColor=#666666;fontColor=#333333;" parent="HGswQ4e0DB3E2tQhXcCx-76" vertex="1">
                    <mxGeometry x="30" width="150" height="30" as="geometry">
                        <mxRectangle width="150" height="30" as="alternateBounds"/>
                    </mxGeometry>
                </mxCell>
                <mxCell id="HGswQ4e0DB3E2tQhXcCx-79" value="" style="shape=tableRow;horizontal=0;startSize=0;swimlaneHead=0;swimlaneBody=0;collapsible=0;dropTarget=0;points=[[0,0.5],[1,0.5]];portConstraint=eastwest;top=0;left=0;right=0;bottom=0;labelBackgroundColor=none;labelBorderColor=none;fillColor=#f5f5f5;strokeColor=#666666;fontColor=#333333;" parent="HGswQ4e0DB3E2tQhXcCx-57" vertex="1">
                    <mxGeometry y="240" width="180" height="30" as="geometry"/>
                </mxCell>
                <mxCell id="HGswQ4e0DB3E2tQhXcCx-80" value="time" style="shape=partialRectangle;connectable=0;top=0;left=0;bottom=0;right=0;editable=1;overflow=hidden;labelBackgroundColor=none;labelBorderColor=none;fillColor=#f5f5f5;strokeColor=#666666;fontColor=#333333;" parent="HGswQ4e0DB3E2tQhXcCx-79" vertex="1">
                    <mxGeometry width="30" height="30" as="geometry">
                        <mxRectangle width="30" height="30" as="alternateBounds"/>
                    </mxGeometry>
                </mxCell>
                <mxCell id="HGswQ4e0DB3E2tQhXcCx-81" value="deleted_at" style="shape=partialRectangle;connectable=0;top=0;left=0;bottom=0;right=0;align=left;spacingLeft=6;overflow=hidden;labelBackgroundColor=none;labelBorderColor=none;fillColor=#f5f5f5;strokeColor=#666666;fontColor=#333333;" parent="HGswQ4e0DB3E2tQhXcCx-79" vertex="1">
                    <mxGeometry x="30" width="150" height="30" as="geometry">
                        <mxRectangle width="150" height="30" as="alternateBounds"/>
                    </mxGeometry>
                </mxCell>
                <mxCell id="HGswQ4e0DB3E2tQhXcCx-82" value="" style="edgeStyle=orthogonalEdgeStyle;rounded=0;orthogonalLoop=1;jettySize=auto;exitX=1;exitY=0.5;exitDx=0;exitDy=0;fontColor=default;labelBackgroundColor=none;labelBorderColor=none;fillColor=#f5f5f5;strokeColor=#666666;" parent="1" source="HGswQ4e0DB3E2tQhXcCx-2" target="HGswQ4e0DB3E2tQhXcCx-33" edge="1">
                    <mxGeometry relative="1" as="geometry"/>
                </mxCell>
                <mxCell id="HGswQ4e0DB3E2tQhXcCx-83" value="" style="edgeStyle=orthogonalEdgeStyle;rounded=0;orthogonalLoop=1;jettySize=auto;exitX=1;exitY=0.5;exitDx=0;exitDy=0;fontColor=default;labelBackgroundColor=none;labelBorderColor=none;fillColor=#f5f5f5;strokeColor=#666666;" parent="1" source="HGswQ4e0DB3E2tQhXcCx-30" target="HGswQ4e0DB3E2tQhXcCx-37" edge="1">
                    <mxGeometry relative="1" as="geometry"/>
                </mxCell>
                <mxCell id="HGswQ4e0DB3E2tQhXcCx-84" value="" style="edgeStyle=orthogonalEdgeStyle;rounded=0;orthogonalLoop=1;jettySize=auto;exitX=1;exitY=0.5;exitDx=0;exitDy=0;fontColor=default;labelBackgroundColor=none;labelBorderColor=none;fillColor=#f5f5f5;strokeColor=#666666;" parent="1" source="HGswQ4e0DB3E2tQhXcCx-37" target="HGswQ4e0DB3E2tQhXcCx-47" edge="1">
                    <mxGeometry relative="1" as="geometry"/>
                </mxCell>
                <mxCell id="HGswQ4e0DB3E2tQhXcCx-85" value="" style="edgeStyle=orthogonalEdgeStyle;rounded=0;orthogonalLoop=1;jettySize=auto;exitX=1;exitY=0.5;exitDx=0;exitDy=0;entryX=0;entryY=0.5;entryDx=0;entryDy=0;fontColor=default;labelBackgroundColor=none;labelBorderColor=none;fillColor=#f5f5f5;strokeColor=#666666;" parent="1" source="HGswQ4e0DB3E2tQhXcCx-44" target="HGswQ4e0DB3E2tQhXcCx-51" edge="1">
                    <mxGeometry relative="1" as="geometry"/>
                </mxCell>
                <mxCell id="HGswQ4e0DB3E2tQhXcCx-87" value="" style="edgeStyle=orthogonalEdgeStyle;rounded=0;orthogonalLoop=1;jettySize=auto;exitX=1;exitY=0.5;exitDx=0;exitDy=0;fontColor=default;labelBackgroundColor=none;labelBorderColor=none;fillColor=#f5f5f5;strokeColor=#666666;" parent="1" source="HGswQ4e0DB3E2tQhXcCx-2" target="HGswQ4e0DB3E2tQhXcCx-58" edge="1">
                    <mxGeometry relative="1" as="geometry"/>
                </mxCell>
            </root>
        </mxGraphModel>
    </diagram>
</mxfile>